<svg width="14" height="12" viewBox="0 0 14 12" fill="none" xmlns="http://www.w3.org/2000/svg">
<path d="M7.15137 12C7.11947 12 7.08984 11.9977 7.0625 11.9932C7.03516 11.984 7.00781 11.9727 6.98047 11.959C6.95768 11.9453 6.83008 11.8701 6.59766 11.7334C6.36979 11.5967 6.07812 11.4053 5.72266 11.1592C5.36719 10.9131 4.9707 10.6169 4.5332 10.2705C4.0957 9.9196 3.6582 9.52995 3.2207 9.10156C3.15234 9.0332 3.11816 8.95117 3.11816 8.85547C3.11816 8.75521 3.15234 8.6709 3.2207 8.60254C3.28906 8.53418 3.37109 8.5 3.4668 8.5C3.5625 8.5 3.64453 8.53418 3.71289 8.60254C4.05924 8.94434 4.40788 9.26107 4.75879 9.55273C5.11426 9.8444 5.44694 10.1042 5.75684 10.332C6.07129 10.5553 6.34928 10.7445 6.59082 10.8994C6.83691 11.0544 7.02376 11.1706 7.15137 11.248C7.27897 11.1706 7.46354 11.0544 7.70508 10.8994C7.95117 10.7399 8.22917 10.5485 8.53906 10.3252C8.84896 10.0973 9.18164 9.83984 9.53711 9.55273C9.89258 9.26107 10.2412 8.94434 10.583 8.60254C10.6514 8.53418 10.7334 8.5 10.8291 8.5C10.9294 8.5 11.0137 8.53418 11.082 8.60254C11.1504 8.6709 11.1846 8.75521 11.1846 8.85547C11.1846 8.95117 11.1481 9.0332 11.0752 9.10156C10.6423 9.52995 10.2048 9.9196 9.7627 10.2705C9.3252 10.6169 8.92871 10.9131 8.57324 11.1592C8.21777 11.4053 7.92383 11.5967 7.69141 11.7334C7.46354 11.8701 7.34049 11.9453 7.32227 11.959C7.29492 11.9727 7.2653 11.984 7.2334 11.9932C7.20605 11.9977 7.17871 12 7.15137 12ZM1.39551 6.40137C1.33171 6.40137 1.27018 6.38314 1.21094 6.34668C1.15169 6.31022 1.1084 6.26009 1.08105 6.19629C0.985352 5.99577 0.901042 5.79297 0.828125 5.58789C0.755208 5.38281 0.693685 5.18001 0.643555 4.97949C0.597982 4.77441 0.561523 4.57161 0.53418 4.37109C0.511393 4.17057 0.5 3.97233 0.5 3.77637C0.5 3.27051 0.595703 2.79427 0.787109 2.34766C0.983073 1.90104 1.2474 1.51139 1.58008 1.17871C1.91276 0.846029 2.30013 0.583984 2.74219 0.392578C3.1888 0.196615 3.66732 0.0986328 4.17773 0.0986328C4.34635 0.0986328 4.51725 0.114583 4.69043 0.146484C4.86816 0.178385 5.04362 0.226237 5.2168 0.290039C5.38997 0.349284 5.56087 0.424479 5.72949 0.515625C5.90267 0.602214 6.06901 0.704753 6.22852 0.823242C6.41536 0.959961 6.58626 1.11035 6.74121 1.27441C6.89616 1.43392 7.03288 1.60026 7.15137 1.77344C7.2653 1.60026 7.39974 1.43392 7.55469 1.27441C7.71419 1.11035 7.88737 0.959961 8.07422 0.823242C8.23372 0.704753 8.39779 0.602214 8.56641 0.515625C8.73503 0.424479 8.90592 0.349284 9.0791 0.290039C9.25228 0.226237 9.42546 0.178385 9.59863 0.146484C9.77637 0.114583 9.95182 0.0986328 10.125 0.0986328C10.6309 0.0986328 11.1071 0.196615 11.5537 0.392578C12.0003 0.583984 12.39 0.846029 12.7227 1.17871C13.0553 1.51139 13.3174 1.90104 13.5088 2.34766C13.7048 2.79427 13.8027 3.27051 13.8027 3.77637C13.8027 3.97233 13.7891 4.17057 13.7617 4.37109C13.7389 4.57161 13.7025 4.77441 13.6523 4.97949C13.6068 5.18001 13.5475 5.38281 13.4746 5.58789C13.4017 5.79297 13.3174 5.99577 13.2217 6.19629C13.1807 6.28743 13.1146 6.34896 13.0234 6.38086C12.9323 6.41276 12.8434 6.4082 12.7568 6.36719C12.6702 6.32617 12.6087 6.26009 12.5723 6.16895C12.5404 6.0778 12.5449 5.98893 12.5859 5.90234C12.6725 5.72005 12.7477 5.54004 12.8115 5.3623C12.8753 5.18001 12.9277 5.00228 12.9688 4.8291C13.0143 4.65137 13.0462 4.47591 13.0645 4.30273C13.0872 4.125 13.0986 3.94954 13.0986 3.77637C13.0986 3.36621 13.0212 2.98112 12.8662 2.62109C12.7113 2.25651 12.4971 1.93978 12.2236 1.6709C11.9548 1.40202 11.6403 1.1901 11.2803 1.03516C10.9202 0.880208 10.5352 0.802734 10.125 0.802734C9.82878 0.802734 9.53711 0.857422 9.25 0.966797C8.96745 1.07617 8.7054 1.21973 8.46387 1.39746C8.22689 1.5752 8.02181 1.77572 7.84863 1.99902C7.67546 2.22233 7.55241 2.44336 7.47949 2.66211C7.45671 2.73047 7.41341 2.78743 7.34961 2.83301C7.29036 2.87858 7.22428 2.90137 7.15137 2.90137C7.07389 2.90137 7.00326 2.87858 6.93945 2.83301C6.88021 2.78743 6.83919 2.73047 6.81641 2.66211C6.74349 2.44336 6.62044 2.22233 6.44727 1.99902C6.27409 1.77572 6.06901 1.5752 5.83203 1.39746C5.59505 1.21973 5.33301 1.07617 5.0459 0.966797C4.76335 0.857422 4.47396 0.802734 4.17773 0.802734C3.76758 0.802734 3.38021 0.880208 3.01562 1.03516C2.6556 1.1901 2.34115 1.40202 2.07227 1.6709C1.80339 1.93978 1.58919 2.25651 1.42969 2.62109C1.27474 2.98112 1.19727 3.36621 1.19727 3.77637C1.19727 3.94954 1.20866 4.125 1.23145 4.30273C1.25423 4.47591 1.28613 4.65137 1.32715 4.8291C1.37272 5.00228 1.42741 5.18001 1.49121 5.3623C1.55501 5.54004 1.62793 5.72005 1.70996 5.90234C1.75098 5.98893 1.75553 6.0778 1.72363 6.16895C1.69173 6.26009 1.63249 6.32617 1.5459 6.36719C1.51855 6.3763 1.49121 6.38542 1.46387 6.39453C1.44108 6.39909 1.41829 6.40137 1.39551 6.40137ZM7.8623 9.19727C7.85775 9.19727 7.85547 9.19727 7.85547 9.19727C7.85547 9.19727 7.85319 9.19727 7.84863 9.19727C7.78027 9.19727 7.69141 9.16536 7.58203 9.10156C7.47266 9.03776 7.38607 8.89193 7.32227 8.66406L6.47461 5.62891L5.90723 7.92578C5.85254 8.14909 5.77051 8.2972 5.66113 8.37012C5.55632 8.43848 5.46745 8.47721 5.39453 8.48633C5.32161 8.49544 5.22591 8.47721 5.10742 8.43164C4.98893 8.38607 4.87728 8.26074 4.77246 8.05566L4.34863 7.20117C4.33952 7.18294 4.3304 7.16699 4.32129 7.15332C4.31217 7.13965 4.30306 7.12826 4.29395 7.11914C4.29395 7.1237 4.29395 7.12826 4.29395 7.13281C4.29395 7.13281 4.29167 7.13281 4.28711 7.13281C4.15951 7.32422 3.9681 7.48372 3.71289 7.61133C3.45768 7.73893 3.20247 7.80273 2.94727 7.80273H2.25C2.1543 7.80273 2.07227 7.76855 2.00391 7.7002C1.93555 7.63184 1.90137 7.54753 1.90137 7.44727C1.90137 7.35156 1.93555 7.26953 2.00391 7.20117C2.07227 7.13281 2.1543 7.09863 2.25 7.09863H2.94727C3.09766 7.09863 3.24805 7.0599 3.39844 6.98242C3.54883 6.90495 3.65365 6.82292 3.71289 6.73633C3.79036 6.6224 3.88379 6.53809 3.99316 6.4834C4.10254 6.42415 4.21647 6.39681 4.33496 6.40137C4.46712 6.41048 4.58789 6.45833 4.69727 6.54492C4.8112 6.63151 4.90462 6.74772 4.97754 6.89355L5.28516 7.51562L5.94141 4.84961C5.99609 4.6263 6.07357 4.48047 6.17383 4.41211C6.27409 4.33919 6.36751 4.30273 6.4541 4.30273C6.53613 4.30273 6.62728 4.33691 6.72754 4.40527C6.83236 4.46908 6.91439 4.61263 6.97363 4.83594L7.87598 8.04199L8.70312 5.5127C8.77148 5.29395 8.86035 5.15267 8.96973 5.08887C9.08366 5.02507 9.17708 4.99316 9.25 4.99316C9.32292 4.98861 9.41634 5.01367 9.53027 5.06836C9.64876 5.11849 9.75358 5.25065 9.84473 5.46484L10.3506 6.66797C10.3962 6.7819 10.485 6.88216 10.6172 6.96875C10.7493 7.05534 10.877 7.09863 11 7.09863H12.0527C12.1484 7.09863 12.2305 7.13281 12.2988 7.20117C12.3672 7.26953 12.4014 7.35156 12.4014 7.44727C12.4014 7.54753 12.3672 7.63184 12.2988 7.7002C12.2305 7.76855 12.1484 7.80273 12.0527 7.80273H11C10.7402 7.80273 10.485 7.7207 10.2344 7.55664C9.98372 7.38802 9.80827 7.18294 9.70801 6.94141L9.29102 5.95703L8.40234 8.68457C8.32943 8.90788 8.23828 9.04915 8.12891 9.1084C8.01953 9.16764 7.93066 9.19727 7.8623 9.19727Z" fill="#555555"/>
</svg>
