<svg width="14" height="15" viewBox="0 0 14 15" fill="none" xmlns="http://www.w3.org/2000/svg">
<path d="M8.55273 5.59863C8.45247 5.59863 8.36816 5.56445 8.2998 5.49609C8.23145 5.42773 8.19727 5.3457 8.19727 5.25C8.19727 5.00846 8.15169 4.78288 8.06055 4.57324C7.9694 4.35905 7.84408 4.1722 7.68457 4.0127C7.52962 3.85319 7.34505 3.72786 7.13086 3.63672C6.91667 3.54557 6.6888 3.5 6.44727 3.5C6.35156 3.5 6.26953 3.46582 6.20117 3.39746C6.13281 3.3291 6.09863 3.24707 6.09863 3.15137C6.09863 3.05566 6.13281 2.97363 6.20117 2.90527C6.26953 2.83691 6.35156 2.80273 6.44727 2.80273C6.6888 2.80273 6.91667 2.75716 7.13086 2.66602C7.34505 2.57031 7.52962 2.44499 7.68457 2.29004C7.84408 2.13053 7.9694 1.94596 8.06055 1.73633C8.15169 1.52214 8.19727 1.29427 8.19727 1.05273C8.19727 0.952474 8.23145 0.868164 8.2998 0.799805C8.36816 0.731445 8.45247 0.697266 8.55273 0.697266C8.64844 0.697266 8.73047 0.731445 8.79883 0.799805C8.86719 0.868164 8.90137 0.952474 8.90137 1.05273C8.90137 1.29427 8.94694 1.52214 9.03809 1.73633C9.12923 1.94596 9.25456 2.13053 9.41406 2.29004C9.57357 2.44499 9.75814 2.57031 9.96777 2.66602C10.182 2.75716 10.4098 2.80273 10.6514 2.80273C10.7471 2.80273 10.8291 2.83691 10.8975 2.90527C10.9658 2.97363 11 3.05566 11 3.15137C11 3.24707 10.9658 3.3291 10.8975 3.39746C10.8291 3.46582 10.7471 3.5 10.6514 3.5C10.4098 3.5 10.182 3.54557 9.96777 3.63672C9.75814 3.72786 9.57357 3.85319 9.41406 4.0127C9.25456 4.1722 9.12923 4.35905 9.03809 4.57324C8.94694 4.78288 8.90137 5.00846 8.90137 5.25C8.90137 5.3457 8.86719 5.42773 8.79883 5.49609C8.73047 5.56445 8.64844 5.59863 8.55273 5.59863ZM7.71191 3.15137C7.88509 3.25618 8.04232 3.37923 8.18359 3.52051C8.32487 3.66178 8.44792 3.81901 8.55273 3.99219C8.65299 3.81901 8.77376 3.66178 8.91504 3.52051C9.06087 3.37923 9.2181 3.25618 9.38672 3.15137C9.2181 3.04655 9.06087 2.9235 8.91504 2.78223C8.77376 2.64095 8.65299 2.48372 8.55273 2.31055C8.44792 2.48372 8.32487 2.64095 8.18359 2.78223C8.04232 2.9235 7.88509 3.04655 7.71191 3.15137ZM1.55273 7.69727C1.45247 7.69727 1.36816 7.66309 1.2998 7.59473C1.23145 7.52637 1.19727 7.44434 1.19727 7.34863C1.19727 7.25293 1.16309 7.1709 1.09473 7.10254C1.02637 7.03418 0.944336 7 0.848633 7C0.75293 7 0.670898 6.96582 0.602539 6.89746C0.53418 6.8291 0.5 6.74707 0.5 6.65137C0.5 6.55566 0.53418 6.47363 0.602539 6.40527C0.670898 6.33691 0.75293 6.30273 0.848633 6.30273C0.944336 6.30273 1.02637 6.26855 1.09473 6.2002C1.16309 6.13184 1.19727 6.04753 1.19727 5.94727C1.19727 5.85156 1.23145 5.76953 1.2998 5.70117C1.36816 5.63281 1.45247 5.59863 1.55273 5.59863C1.64844 5.59863 1.73047 5.63281 1.79883 5.70117C1.86719 5.76953 1.90137 5.85156 1.90137 5.94727C1.90137 6.04753 1.93555 6.13184 2.00391 6.2002C2.07227 6.26855 2.1543 6.30273 2.25 6.30273C2.3457 6.30273 2.42773 6.33691 2.49609 6.40527C2.56445 6.47363 2.59863 6.55566 2.59863 6.65137C2.59863 6.74707 2.56445 6.8291 2.49609 6.89746C2.42773 6.96582 2.3457 7 2.25 7C2.1543 7 2.07227 7.03418 2.00391 7.10254C1.93555 7.1709 1.90137 7.25293 1.90137 7.34863C1.90137 7.44434 1.86719 7.52637 1.79883 7.59473C1.73047 7.66309 1.64844 7.69727 1.55273 7.69727ZM13.2012 11.8604L5.79102 4.4502C5.69531 4.34993 5.58138 4.27474 5.44922 4.22461C5.32161 4.16992 5.18945 4.14258 5.05273 4.14258C4.91146 4.14258 4.77702 4.16992 4.64941 4.22461C4.52181 4.27474 4.40788 4.34993 4.30762 4.4502L3.89746 4.86035C3.7972 4.95605 3.71973 5.06771 3.66504 5.19531C3.61491 5.32292 3.58984 5.45736 3.58984 5.59863C3.58984 5.73991 3.61491 5.87435 3.66504 6.00195C3.71973 6.12956 3.7972 6.24349 3.89746 6.34375L11.3076 13.7539C11.4079 13.8496 11.5218 13.9248 11.6494 13.9795C11.777 14.0342 11.9115 14.0615 12.0527 14.0615C12.1895 14.0615 12.3216 14.0342 12.4492 13.9795C12.5814 13.9248 12.6953 13.8496 12.791 13.7539L13.2012 13.3438C13.3014 13.2435 13.3766 13.1296 13.4268 13.002C13.4814 12.8743 13.5088 12.7399 13.5088 12.5986C13.5088 12.4574 13.4814 12.3229 13.4268 12.1953C13.3766 12.0677 13.3014 11.9561 13.2012 11.8604ZM4.38965 5.35254L4.7998 4.94238C4.83626 4.91048 4.875 4.88542 4.91602 4.86719C4.95703 4.84896 5.0026 4.83984 5.05273 4.83984C5.09831 4.83984 5.1416 4.84896 5.18262 4.86719C5.22819 4.88542 5.26693 4.91048 5.29883 4.94238L6.30371 5.94727L5.40137 6.85645L4.38965 5.84473C4.32129 5.77637 4.28711 5.69434 4.28711 5.59863C4.28711 5.50293 4.32129 5.4209 4.38965 5.35254ZM12.709 12.8447L12.2988 13.2549C12.2669 13.2913 12.2282 13.3187 12.1826 13.3369C12.1416 13.3506 12.0983 13.3574 12.0527 13.3574C12.0026 13.3574 11.957 13.3506 11.916 13.3369C11.875 13.3187 11.8363 13.2913 11.7998 13.2549L5.89355 7.34863L6.80273 6.44629L12.709 12.3525C12.7773 12.4209 12.8115 12.5029 12.8115 12.5986C12.8115 12.6943 12.7773 12.7764 12.709 12.8447ZM2.94727 4.19727C2.85156 4.19727 2.76953 4.16309 2.70117 4.09473C2.63281 4.02637 2.59863 3.94434 2.59863 3.84863C2.59863 3.56152 2.49609 3.31543 2.29102 3.11035C2.08594 2.90527 1.83984 2.80273 1.55273 2.80273C1.45247 2.80273 1.36816 2.76855 1.2998 2.7002C1.23145 2.63184 1.19727 2.54753 1.19727 2.44727C1.19727 2.35156 1.23145 2.26953 1.2998 2.20117C1.36816 2.13281 1.45247 2.09863 1.55273 2.09863C1.83984 2.09863 2.08594 1.99609 2.29102 1.79102C2.49609 1.58594 2.59863 1.33984 2.59863 1.05273C2.59863 0.952474 2.63281 0.868164 2.70117 0.799805C2.76953 0.731445 2.85156 0.697266 2.94727 0.697266C3.04753 0.697266 3.13184 0.731445 3.2002 0.799805C3.26855 0.868164 3.30273 0.952474 3.30273 1.05273C3.30273 1.33984 3.40527 1.58594 3.61035 1.79102C3.81543 1.99609 4.06152 2.09863 4.34863 2.09863C4.44434 2.09863 4.52637 2.13281 4.59473 2.20117C4.66309 2.26953 4.69727 2.35156 4.69727 2.44727C4.69727 2.54753 4.66309 2.63184 4.59473 2.7002C4.52637 2.76855 4.44434 2.80273 4.34863 2.80273C4.06152 2.80273 3.81543 2.90527 3.61035 3.11035C3.40527 3.31543 3.30273 3.56152 3.30273 3.84863C3.30273 3.94434 3.26855 4.02637 3.2002 4.09473C3.13184 4.16309 3.04753 4.19727 2.94727 4.19727ZM2.59863 2.44727C2.66699 2.4974 2.72852 2.55208 2.7832 2.61133C2.84245 2.67057 2.89714 2.73438 2.94727 2.80273C2.9974 2.73438 3.05208 2.67057 3.11133 2.61133C3.17057 2.55208 3.23438 2.4974 3.30273 2.44727C3.23438 2.39714 3.17057 2.34473 3.11133 2.29004C3.05208 2.23079 2.9974 2.16699 2.94727 2.09863C2.89714 2.16699 2.84245 2.23079 2.7832 2.29004C2.72852 2.34473 2.66699 2.39714 2.59863 2.44727ZM2.94727 11.1973C2.85156 11.1973 2.76953 11.1631 2.70117 11.0947C2.63281 11.0264 2.59863 10.9443 2.59863 10.8486C2.59863 10.5615 2.49609 10.3154 2.29102 10.1104C2.08594 9.90527 1.83984 9.80273 1.55273 9.80273C1.45247 9.80273 1.36816 9.76855 1.2998 9.7002C1.23145 9.63184 1.19727 9.54753 1.19727 9.44727C1.19727 9.35156 1.23145 9.26953 1.2998 9.20117C1.36816 9.13281 1.45247 9.09863 1.55273 9.09863C1.83984 9.09863 2.08594 8.99609 2.29102 8.79102C2.49609 8.58594 2.59863 8.33984 2.59863 8.05273C2.59863 7.95247 2.63281 7.86816 2.70117 7.7998C2.76953 7.73145 2.85156 7.69727 2.94727 7.69727C3.04753 7.69727 3.13184 7.73145 3.2002 7.7998C3.26855 7.86816 3.30273 7.95247 3.30273 8.05273C3.30273 8.33984 3.40527 8.58594 3.61035 8.79102C3.81543 8.99609 4.06152 9.09863 4.34863 9.09863C4.44434 9.09863 4.52637 9.13281 4.59473 9.20117C4.66309 9.26953 4.69727 9.35156 4.69727 9.44727C4.69727 9.54753 4.66309 9.63184 4.59473 9.7002C4.52637 9.76855 4.44434 9.80273 4.34863 9.80273C4.06152 9.80273 3.81543 9.90527 3.61035 10.1104C3.40527 10.3154 3.30273 10.5615 3.30273 10.8486C3.30273 10.9443 3.26855 11.0264 3.2002 11.0947C3.13184 11.1631 3.04753 11.1973 2.94727 11.1973ZM2.59863 9.44727C2.66699 9.4974 2.72852 9.55208 2.7832 9.61133C2.84245 9.67057 2.89714 9.73438 2.94727 9.80273C2.9974 9.73438 3.05208 9.67057 3.11133 9.61133C3.17057 9.55208 3.23438 9.4974 3.30273 9.44727C3.23438 9.39714 3.17057 9.34473 3.11133 9.29004C3.05208 9.23079 2.9974 9.16699 2.94727 9.09863C2.89714 9.16699 2.84245 9.23079 2.7832 9.29004C2.72852 9.34473 2.66699 9.39714 2.59863 9.44727Z" fill="#555555"/>
</svg>
