<svg width="13" height="13" viewBox="0 0 13 13" fill="none" xmlns="http://www.w3.org/2000/svg">
<path d="M12.0986 4.45508L8.39355 0.75C8.32975 0.686198 8.25456 0.636068 8.16797 0.599609C8.08138 0.563151 7.99251 0.544922 7.90137 0.544922C7.80566 0.544922 7.71452 0.563151 7.62793 0.599609C7.5459 0.636068 7.4707 0.686198 7.40234 0.75L7.19727 0.955078C7.09701 1.05534 7.0127 1.18522 6.94434 1.34473C6.88053 1.50423 6.84863 1.6569 6.84863 1.80273V2.5C6.84863 2.55013 6.83268 2.61165 6.80078 2.68457C6.77344 2.75749 6.74154 2.81217 6.70508 2.84863L4.75 4.80371C4.71354 4.84017 4.65885 4.87435 4.58594 4.90625C4.51302 4.93359 4.4515 4.94727 4.40137 4.94727H3.69727C3.55599 4.94727 3.4056 4.98145 3.24609 5.0498C3.08659 5.11361 2.95671 5.19792 2.85645 5.30273L2.65137 5.50781C2.51465 5.64453 2.44629 5.80859 2.44629 6C2.44629 6.19141 2.51465 6.35547 2.65137 6.49219L3.73828 7.5791L0.272461 12.084C0.217773 12.1569 0.192708 12.2367 0.197266 12.3232C0.20638 12.4098 0.24056 12.485 0.299805 12.5488C0.336263 12.5807 0.375 12.6058 0.416016 12.624C0.461589 12.6423 0.507161 12.6514 0.552734 12.6514C0.589193 12.6514 0.625651 12.6468 0.662109 12.6377C0.698568 12.624 0.732747 12.6035 0.764648 12.5762L5.26953 9.11035L6.35645 10.1973C6.42025 10.2656 6.49544 10.318 6.58203 10.3545C6.66862 10.3864 6.75749 10.4023 6.84863 10.4023C6.94434 10.4023 7.0332 10.3864 7.11523 10.3545C7.20182 10.318 7.2793 10.2656 7.34766 10.1973L7.55273 9.99219C7.65299 9.89193 7.73503 9.76204 7.79883 9.60254C7.86719 9.44303 7.90137 9.29264 7.90137 9.15137V8.44727C7.90137 8.39714 7.91504 8.33561 7.94238 8.2627C7.97428 8.18978 8.00846 8.13509 8.04492 8.09863L10 6.14355C10.0365 6.1071 10.0911 6.0752 10.1641 6.04785C10.237 6.01595 10.2985 6 10.3486 6H11.0527C11.194 6 11.3444 5.9681 11.5039 5.9043C11.6634 5.83594 11.7933 5.75163 11.8936 5.65137L12.0986 5.44629C12.167 5.37793 12.2171 5.30273 12.249 5.2207C12.2855 5.13411 12.3037 5.04297 12.3037 4.94727C12.3037 4.85612 12.2855 4.76725 12.249 4.68066C12.2171 4.59408 12.167 4.51888 12.0986 4.45508ZM2.4668 10.3887L4.2373 8.07812L4.77051 8.61133L2.4668 10.3887ZM11.4014 5.15234C11.3649 5.1888 11.3102 5.22298 11.2373 5.25488C11.1644 5.28678 11.1029 5.30273 11.0527 5.30273H10.3486C10.2074 5.30273 10.057 5.33691 9.89746 5.40527C9.73796 5.46908 9.60807 5.55111 9.50781 5.65137L7.55273 7.60645C7.44792 7.70671 7.36133 7.83659 7.29297 7.99609C7.22917 8.1556 7.19727 8.30599 7.19727 8.44727V9.15137C7.19727 9.2015 7.18132 9.26302 7.14941 9.33594C7.12207 9.40885 7.09017 9.46354 7.05371 9.5L6.84863 9.70508L3.14355 6L3.34863 5.79492C3.38509 5.75846 3.43978 5.72656 3.5127 5.69922C3.58561 5.66732 3.64714 5.65137 3.69727 5.65137H4.40137C4.54264 5.65137 4.69303 5.61947 4.85254 5.55566C5.01204 5.4873 5.14193 5.40299 5.24219 5.30273L7.19727 3.34766C7.30208 3.24284 7.38639 3.11068 7.4502 2.95117C7.51855 2.79167 7.55273 2.64128 7.55273 2.5V1.80273C7.55273 1.7526 7.56641 1.69108 7.59375 1.61816C7.62565 1.54069 7.65983 1.48372 7.69629 1.44727L7.90137 1.24219L11.6064 4.94727L11.4014 5.15234Z" fill="#555555"/>
</svg>
