<svg width="15" height="15" viewBox="0 0 15 15" fill="none" xmlns="http://www.w3.org/2000/svg">
<path d="M5.83887 14.4922C5.8252 14.4922 5.81152 14.4899 5.79785 14.4854C5.78418 14.4854 5.77051 14.4831 5.75684 14.4785C5.44238 14.401 5.13477 14.2985 4.83398 14.1709C4.5332 14.0479 4.24154 13.9043 3.95898 13.7402C3.87695 13.6901 3.82227 13.6195 3.79492 13.5283C3.77214 13.4372 3.78353 13.3506 3.8291 13.2686C3.88379 13.1683 3.9248 13.0612 3.95215 12.9473C3.98405 12.8333 4 12.7171 4 12.5986C4 12.4072 3.96354 12.2272 3.89062 12.0586C3.81771 11.8854 3.71745 11.7373 3.58984 11.6143C3.46224 11.4867 3.31413 11.3864 3.14551 11.3135C2.97689 11.236 2.7946 11.1973 2.59863 11.1973C2.4847 11.1973 2.37077 11.2132 2.25684 11.2451C2.1429 11.2725 2.03353 11.3135 1.92871 11.3682C1.84668 11.4137 1.76009 11.4251 1.66895 11.4023C1.5778 11.375 1.50944 11.3203 1.46387 11.2383C1.29525 10.9603 1.14941 10.6709 1.02637 10.3701C0.90332 10.0693 0.800781 9.76172 0.71875 9.44727C0.695964 9.35612 0.705078 9.27181 0.746094 9.19434C0.791667 9.1123 0.857747 9.05534 0.944336 9.02344C1.23145 8.92773 1.46159 8.75911 1.63477 8.51758C1.8125 8.27148 1.90137 7.99805 1.90137 7.69727C1.90137 7.39648 1.8125 7.12533 1.63477 6.88379C1.46159 6.6377 1.23145 6.4668 0.944336 6.37109C0.857747 6.34375 0.791667 6.29134 0.746094 6.21387C0.705078 6.13184 0.695964 6.04525 0.71875 5.9541C0.800781 5.63965 0.90332 5.33203 1.02637 5.03125C1.14941 4.73047 1.29525 4.4388 1.46387 4.15625C1.50944 4.07878 1.5778 4.02865 1.66895 4.00586C1.76009 3.97852 1.84668 3.98535 1.92871 4.02637C2.03353 4.08561 2.1429 4.12891 2.25684 4.15625C2.37077 4.18359 2.4847 4.19727 2.59863 4.19727C2.7946 4.19727 2.97689 4.16081 3.14551 4.08789C3.31413 4.01497 3.46224 3.91699 3.58984 3.79395C3.71745 3.66634 3.81771 3.51823 3.89062 3.34961C3.96354 3.17643 4 2.99414 4 2.80273C4 2.68424 3.98405 2.56803 3.95215 2.4541C3.9248 2.34017 3.88379 2.23307 3.8291 2.13281C3.78353 2.04622 3.77214 1.95736 3.79492 1.86621C3.82227 1.77507 3.87695 1.70671 3.95898 1.66113C4.24154 1.49707 4.5332 1.35352 4.83398 1.23047C5.13477 1.10286 5.44238 1.00033 5.75684 0.922852C5.84342 0.900065 5.92773 0.911458 6.00977 0.957031C6.0918 0.998047 6.14648 1.06185 6.17383 1.14844C6.26953 1.43099 6.43815 1.66113 6.67969 1.83887C6.92578 2.01204 7.19922 2.09863 7.5 2.09863C7.80078 2.09863 8.07194 2.01204 8.31348 1.83887C8.55957 1.66113 8.73047 1.43099 8.82617 1.14844C8.85352 1.06185 8.9082 0.998047 8.99023 0.957031C9.07227 0.911458 9.15658 0.900065 9.24316 0.922852C9.55762 1.00033 9.86523 1.10286 10.166 1.23047C10.4668 1.35352 10.7585 1.49707 11.041 1.66113C11.123 1.70671 11.1755 1.77507 11.1982 1.86621C11.2256 1.95736 11.2165 2.04622 11.1709 2.13281C11.1162 2.23307 11.0729 2.34017 11.041 2.4541C11.0137 2.56803 11 2.68424 11 2.80273C11 2.99414 11.0365 3.17643 11.1094 3.34961C11.1823 3.51823 11.2826 3.66634 11.4102 3.79395C11.5378 3.91699 11.6859 4.01497 11.8545 4.08789C12.0231 4.16081 12.2054 4.19727 12.4014 4.19727C12.5153 4.19727 12.6292 4.18359 12.7432 4.15625C12.8571 4.12891 12.9665 4.08561 13.0713 4.02637C13.1533 3.98535 13.2399 3.97852 13.3311 4.00586C13.4222 4.02865 13.4906 4.07878 13.5361 4.15625C13.7048 4.4388 13.8506 4.73047 13.9736 5.03125C14.0967 5.33203 14.1992 5.63965 14.2812 5.9541C14.304 6.04525 14.2926 6.13184 14.2471 6.21387C14.2061 6.29134 14.1423 6.34375 14.0557 6.37109C13.7686 6.4668 13.5361 6.6377 13.3584 6.88379C13.1852 7.12533 13.0986 7.39648 13.0986 7.69727C13.0986 7.99805 13.1852 8.27148 13.3584 8.51758C13.5361 8.75911 13.7686 8.92773 14.0557 9.02344C14.1423 9.05534 14.2061 9.1123 14.2471 9.19434C14.2926 9.27181 14.304 9.35612 14.2812 9.44727C14.1992 9.76172 14.0967 10.0693 13.9736 10.3701C13.8506 10.6709 13.7048 10.9603 13.5361 11.2383C13.4906 11.3203 13.4222 11.375 13.3311 11.4023C13.2399 11.4251 13.1533 11.4137 13.0713 11.3682C12.9665 11.3135 12.8571 11.2725 12.7432 11.2451C12.6292 11.2132 12.5153 11.1973 12.4014 11.1973C12.2054 11.1973 12.0231 11.236 11.8545 11.3135C11.6859 11.3864 11.5378 11.4867 11.4102 11.6143C11.2826 11.7373 11.1823 11.8854 11.1094 12.0586C11.0365 12.2272 11 12.4072 11 12.5986C11 12.7171 11.0137 12.8333 11.041 12.9473C11.0729 13.0612 11.1162 13.1683 11.1709 13.2686C11.2165 13.3506 11.2256 13.4372 11.1982 13.5283C11.1755 13.6195 11.123 13.6901 11.041 13.7402C10.7585 13.9043 10.4668 14.0479 10.166 14.1709C9.86523 14.2985 9.55762 14.401 9.24316 14.4785C9.15658 14.5013 9.07227 14.4899 8.99023 14.4443C8.9082 14.4033 8.85352 14.3395 8.82617 14.2529C8.73047 13.9658 8.55957 13.7357 8.31348 13.5625C8.07194 13.3893 7.80078 13.3027 7.5 13.3027C7.19922 13.3027 6.92578 13.3893 6.67969 13.5625C6.43815 13.7357 6.26953 13.9658 6.17383 14.2529C6.15104 14.3258 6.10775 14.3828 6.04395 14.4238C5.9847 14.4694 5.91634 14.4922 5.83887 14.4922ZM7.5 12.5986C7.69596 12.5986 7.88509 12.626 8.06738 12.6807C8.25423 12.7308 8.42741 12.806 8.58691 12.9062C8.75098 13.002 8.89681 13.1204 9.02441 13.2617C9.15658 13.3984 9.26823 13.5511 9.35938 13.7197C9.54167 13.665 9.7194 13.6012 9.89258 13.5283C10.0703 13.4554 10.2435 13.3757 10.4121 13.2891C10.3757 13.1751 10.3483 13.0612 10.3301 12.9473C10.3118 12.8333 10.3027 12.7171 10.3027 12.5986C10.3027 12.3115 10.3574 12.0404 10.4668 11.7852C10.5762 11.5299 10.7243 11.3066 10.9111 11.1152C11.1025 10.9238 11.3258 10.7734 11.5811 10.6641C11.8363 10.5547 12.1097 10.5 12.4014 10.5C12.5153 10.5 12.6292 10.5114 12.7432 10.5342C12.8617 10.5524 12.9756 10.5798 13.085 10.6162C13.1761 10.4476 13.2581 10.2744 13.3311 10.0967C13.404 9.91895 13.4678 9.73893 13.5225 9.55664C13.3493 9.47005 13.1943 9.36068 13.0576 9.22852C12.9209 9.09635 12.8024 8.95052 12.7021 8.79102C12.6064 8.63151 12.5312 8.46061 12.4766 8.27832C12.4264 8.09147 12.4014 7.89779 12.4014 7.69727C12.4014 7.5013 12.4264 7.31217 12.4766 7.12988C12.5312 6.94303 12.6064 6.76986 12.7021 6.61035C12.8024 6.45085 12.9209 6.30501 13.0576 6.17285C13.1943 6.04069 13.3493 5.93132 13.5225 5.84473C13.4678 5.66243 13.404 5.48242 13.3311 5.30469C13.2581 5.12695 13.1761 4.95378 13.085 4.78516C12.9756 4.82161 12.8617 4.85124 12.7432 4.87402C12.6292 4.89225 12.5153 4.90137 12.4014 4.90137C12.1097 4.90137 11.8363 4.84668 11.5811 4.7373C11.3258 4.62337 11.1025 4.47298 10.9111 4.28613C10.7243 4.09473 10.5762 3.87142 10.4668 3.61621C10.3574 3.361 10.3027 3.08984 10.3027 2.80273C10.3027 2.68424 10.3118 2.56803 10.3301 2.4541C10.3483 2.33561 10.3757 2.22168 10.4121 2.1123C10.2435 2.02572 10.0703 1.94596 9.89258 1.87305C9.7194 1.80013 9.54167 1.73633 9.35938 1.68164C9.26823 1.85026 9.15658 2.00521 9.02441 2.14648C8.89681 2.2832 8.75098 2.39941 8.58691 2.49512C8.42741 2.59082 8.25423 2.66602 8.06738 2.7207C7.88509 2.77539 7.69596 2.80273 7.5 2.80273C7.30404 2.80273 7.11263 2.77539 6.92578 2.7207C6.74349 2.66602 6.57031 2.59082 6.40625 2.49512C6.24674 2.39941 6.10091 2.2832 5.96875 2.14648C5.84115 2.00521 5.73177 1.85026 5.64062 1.68164C5.45833 1.73633 5.27832 1.80013 5.10059 1.87305C4.92741 1.94596 4.75651 2.02572 4.58789 2.1123C4.62435 2.22168 4.65169 2.33561 4.66992 2.4541C4.68815 2.56803 4.69727 2.68424 4.69727 2.80273C4.69727 3.08984 4.64258 3.361 4.5332 3.61621C4.42383 3.87142 4.27344 4.09473 4.08203 4.28613C3.89518 4.47298 3.67415 4.62337 3.41895 4.7373C3.16374 4.84668 2.8903 4.90137 2.59863 4.90137C2.4847 4.90137 2.36849 4.89225 2.25 4.87402C2.13607 4.85124 2.02441 4.82161 1.91504 4.78516C1.82389 4.95378 1.74186 5.12695 1.66895 5.30469C1.59603 5.48242 1.53223 5.66243 1.47754 5.84473C1.65072 5.93132 1.80566 6.04069 1.94238 6.17285C2.0791 6.30501 2.19531 6.45085 2.29102 6.61035C2.39128 6.76986 2.46647 6.94303 2.5166 7.12988C2.57129 7.31217 2.59863 7.5013 2.59863 7.69727C2.59863 7.89779 2.57129 8.09147 2.5166 8.27832C2.46647 8.46061 2.39128 8.63151 2.29102 8.79102C2.19531 8.95052 2.0791 9.09635 1.94238 9.22852C1.80566 9.36068 1.65072 9.47005 1.47754 9.55664C1.53223 9.73893 1.59603 9.91895 1.66895 10.0967C1.74186 10.2744 1.82389 10.4476 1.91504 10.6162C2.02441 10.5798 2.13607 10.5524 2.25 10.5342C2.36849 10.5114 2.4847 10.5 2.59863 10.5C2.8903 10.5 3.16374 10.5547 3.41895 10.6641C3.67415 10.7734 3.89518 10.9238 4.08203 11.1152C4.27344 11.3066 4.42383 11.5299 4.5332 11.7852C4.64258 12.0404 4.69727 12.3115 4.69727 12.5986C4.69727 12.7171 4.68815 12.8333 4.66992 12.9473C4.65169 13.0612 4.62435 13.1751 4.58789 13.2891C4.75651 13.3757 4.92741 13.4554 5.10059 13.5283C5.27832 13.6012 5.45833 13.665 5.64062 13.7197C5.73177 13.5511 5.84115 13.3984 5.96875 13.2617C6.10091 13.1204 6.24674 13.002 6.40625 12.9062C6.57031 12.806 6.74349 12.7308 6.92578 12.6807C7.11263 12.626 7.30404 12.5986 7.5 12.5986ZM7.5 9.80273C7.20833 9.80273 6.9349 9.74805 6.67969 9.63867C6.42904 9.52474 6.20801 9.37435 6.0166 9.1875C5.8252 8.99609 5.6748 8.77279 5.56543 8.51758C5.45605 8.26237 5.40137 7.98893 5.40137 7.69727C5.40137 7.41016 5.45605 7.139 5.56543 6.88379C5.6748 6.62858 5.8252 6.40755 6.0166 6.2207C6.20801 6.0293 6.42904 5.87891 6.67969 5.76953C6.9349 5.6556 7.20833 5.59863 7.5 5.59863C7.79167 5.59863 8.06283 5.6556 8.31348 5.76953C8.56868 5.87891 8.79199 6.0293 8.9834 6.2207C9.1748 6.40755 9.3252 6.62858 9.43457 6.88379C9.54395 7.139 9.59863 7.41016 9.59863 7.69727C9.59863 7.98893 9.54395 8.26237 9.43457 8.51758C9.3252 8.77279 9.1748 8.99609 8.9834 9.1875C8.79199 9.37435 8.56868 9.52474 8.31348 9.63867C8.06283 9.74805 7.79167 9.80273 7.5 9.80273ZM7.5 6.30273C7.30859 6.30273 7.1263 6.33919 6.95312 6.41211C6.78451 6.48503 6.63639 6.58529 6.50879 6.71289C6.38118 6.83594 6.28092 6.98405 6.20801 7.15723C6.13509 7.32585 6.09863 7.50586 6.09863 7.69727C6.09863 7.89323 6.13509 8.07552 6.20801 8.24414C6.28092 8.41276 6.38118 8.56087 6.50879 8.68848C6.63639 8.81608 6.78451 8.91634 6.95312 8.98926C7.1263 9.06217 7.30859 9.09863 7.5 9.09863C7.69141 9.09863 7.87142 9.06217 8.04004 8.98926C8.21322 8.91634 8.36361 8.81608 8.49121 8.68848C8.61882 8.56087 8.71908 8.41276 8.79199 8.24414C8.86491 8.07552 8.90137 7.89323 8.90137 7.69727C8.90137 7.50586 8.86491 7.32585 8.79199 7.15723C8.71908 6.98405 8.61882 6.83594 8.49121 6.71289C8.36361 6.58529 8.21322 6.48503 8.04004 6.41211C7.87142 6.33919 7.69141 6.30273 7.5 6.30273Z" fill="#555555"/>
</svg>
